HIERARCHY
ROOT RootJoint
{
    OFFSET   0.000000   0.000000   0.000000
    CHANNELS 6 Xposition Yposition Zposition Xrotation Yrotation Zrotation
    JOINT pelvis_lowerback
    {
        OFFSET   0.000000   0.093605   0.000000
        CHANNELS 3 Xrotation Yrotation Zrotation
        JOINT lowerback_torso
        {
            OFFSET   0.000000   0.100000   0.000000
            CHANNELS 3 Xrotation Yrotation Zrotation
            JOINT torso_head
            {
                OFFSET   0.000000   0.282350   0.000000
                CHANNELS 3 Xrotation Yrotation Zrotation
                End Site
                {
                    OFFSET   0.000000   0.192650   0.000000
                }
            }
            JOINT rTorso_Clavicle
            {
                OFFSET  -0.001000   0.157500   0.000000
                CHANNELS 3 Xrotation Yrotation Zrotation
                JOINT rShoulder
                {
                    OFFSET  -0.117647   0.000000   0.000000
                    CHANNELS 3 Xrotation Yrotation Zrotation
                    JOINT rElbow
                    {
                        OFFSET  -0.245000   0.000000   0.000000
                        CHANNELS 3 Xrotation Yrotation Zrotation
                        JOINT rWrist
                        {
                            OFFSET  -0.240000   0.000000   0.000000
                            CHANNELS 3 Xrotation Yrotation Zrotation
                            End Site
                            {
                                OFFSET  -0.116353  -0.002500   0.000000
                            }
                        }
                    }
                }
            }
            JOINT lTorso_Clavicle
            {
                OFFSET   0.001000   0.157500   0.000000
                CHANNELS 3 Xrotation Yrotation Zrotation
                JOINT lShoulder
                {
                    OFFSET   0.117647   0.000000   0.000000
                    CHANNELS 3 Xrotation Yrotation Zrotation
                    JOINT lElbow
                    {
                        OFFSET   0.245000   0.000000   0.000000
                        CHANNELS 3 Xrotation Yrotation Zrotation
                        JOINT lWrist
                        {
                            OFFSET   0.240000   0.000000   0.000000
                            CHANNELS 3 Xrotation Yrotation Zrotation
                            End Site
                            {
                                OFFSET   0.116353  -0.002500   0.000000
                            }
                        }
                    }
                }
            }
        }
    }
    JOINT rHip
    {
        OFFSET  -0.100000  -0.051395   0.000000
        CHANNELS 3 Xrotation Yrotation Zrotation
        JOINT rKnee
        {
            OFFSET   0.000000  -0.410000   0.000000
            CHANNELS 3 Xrotation Yrotation Zrotation
            JOINT rAnkle
            {
                OFFSET   0.000000  -0.390000   0.000000
                CHANNELS 3 Xrotation Yrotation Zrotation
                JOINT rToeJoint
                {
                    OFFSET   0.000000  -0.050000   0.130000
                    CHANNELS 3 Xrotation Yrotation Zrotation
                    End Site
                    {
                        OFFSET  -0.010000   0.002000   0.060000
                    }
                }
            }
        }
    }
    JOINT lHip
    {
        OFFSET   0.100000  -0.051395   0.000000
        CHANNELS 3 Xrotation Yrotation Zrotation
        JOINT lKnee
        {
            OFFSET   0.000000  -0.410000   0.000000
            CHANNELS 3 Xrotation Yrotation Zrotation
            JOINT lAnkle
            {
                OFFSET   0.000000  -0.390000   0.000000
                CHANNELS 3 Xrotation Yrotation Zrotation
                JOINT lToeJoint
                {
                    OFFSET   0.000000  -0.050000   0.130000
                    CHANNELS 3 Xrotation Yrotation Zrotation
                    End Site
                    {
                        OFFSET   0.010000   0.002000   0.060000
                    }
                }
            }
        }
    }
}
MOTION
Frames: 11
Frame Time:   0.008333
 -2.376719   0.925631   3.975860   0.000000   0.000000   0.000000   0.000000   0.000000   0.000000   0.000000   0.000000   0.000000   0.000000   0.000000   0.000000   0.000000   0.000000   0.000000   0.000000   0.000000   0.000000   0.000000   0.000000   0.000000   0.000000   0.000000   0.000000   0.000000   0.000000   0.000000   0.000000   0.000000   0.000000   0.000000   0.000000   0.000000   0.000000   0.000000   0.000000   0.000000   0.000000   0.000000   0.000000   0.000000   0.000000   0.000000   0.000000   0.000000   0.000000   0.000000   0.000000   0.000000   0.000000   0.000000   0.000000   0.000000   0.000000   0.000000   0.000000   0.000000   0.000000   0.000000   0.000000
 -2.375655   0.925233   3.975330  -0.349857  -0.329816   0.025935   0.487932   0.258858   0.230815   0.067325  -0.227776   0.072746   0.027181  -0.300741   0.152124  -0.200214  -0.519326  -0.379613  -0.410154   0.224654   0.690817   0.019683   3.597713   0.012076   0.050235  -1.295080  -0.994304   0.034807   0.450334  -0.244235   0.436490   0.734005  -1.465282   0.030934  -2.552699   0.015466   0.011713   0.380771   1.920770  -0.425877   0.238805  -0.476255   2.708823   0.010632  -0.002480  -2.877966  -0.242836  -0.065942  -0.042347  -0.000192   0.000120  -0.677341   0.495419   0.182824   3.119599  -0.005410   0.004699  -0.722402   0.251415  -0.714235   0.300457   0.001332   0.001113
 -2.373996   0.925121   3.974892  -0.886175  -1.046544   0.089323   1.011028   0.653271   0.553334   0.249368  -0.311190   0.140904   0.113821  -0.600950   0.362470  -0.394562  -0.891780  -0.580964  -0.804897   0.588737   1.459854   0.047283   7.341180   0.022596   0.095352  -1.505700  -1.863025   0.080051   0.940323  -0.982881   0.864048   1.423172  -3.228751   0.069204  -4.989567   0.026076   0.059720   0.157474   3.384802  -0.647463   0.466242  -1.322918   5.607583   0.027345  -0.016571  -5.560297  -0.477574  -0.133354  -0.159240  -0.001037   0.000827  -1.394358   0.735350   0.171096   5.875753  -0.005764  -0.007292  -1.968627   0.198880  -1.429855  -0.625913  -0.004372   0.005089
 -2.372349   0.925100   3.974798  -1.484119  -2.005627   0.087003   1.466081   1.118174   0.924134   0.437067  -0.284314   0.227133   0.211465  -0.883431   0.594739  -0.573884  -1.148158  -0.615474  -1.179689   0.999879   2.296503   0.075858  11.122289   0.034603   0.146183  -1.349543  -2.478237   0.132120   1.420281  -1.979085   1.285011   2.064252  -5.110662   0.104471  -7.265847   0.030882   0.114156  -0.177597   4.328691  -0.695930   0.662918  -2.339188   8.389656   0.043383  -0.036325  -8.058100  -0.702156  -0.204565  -0.248148  -0.001688   0.001427  -2.086332   1.028160   0.233942   8.776075  -0.007778  -0.022051  -3.013526   0.224762  -2.060242  -1.924834  -0.010110   0.010791
 -2.370946   0.924921   3.975030  -2.082324  -3.090076  -0.006559   1.832027   1.609745   1.314987   0.584220  -0.193615   0.331840   0.300979  -1.147889   0.828808  -0.735386  -1.335111  -0.524632  -1.532950   1.418511   3.175855   0.100443  14.920213   0.048347   0.196100  -1.060857  -2.852976   0.191428   1.884873  -3.091808   1.701297   2.659157  -7.011910   0.132632  -9.387947   0.031509   0.164952  -0.512370   4.904656  -0.640713   0.832062  -3.454372  11.016117   0.056662  -0.056743 -10.388529  -0.913929  -0.279889  -0.328930  -0.002259   0.001943  -2.730855   1.343796   0.456876  11.630153  -0.012671  -0.035446  -3.899996   0.288188  -2.640271  -3.385673  -0.014051   0.016437
 -2.369873   0.924435   3.975508  -2.660936  -4.207749  -0.177151   2.116272   2.095260   1.698221   0.684005  -0.075186   0.446246   0.377490  -1.395401   1.055020  -0.877526  -1.485510  -0.343929  -1.863454   1.821468   4.072885   0.118340  18.724782   0.063079   0.241176  -0.730027  -3.039754   0.257798   2.330100  -4.241652   2.112216   3.208699  -8.875688   0.152800 -11.365700   0.029677   0.209457  -0.822641   5.248956  -0.516863   0.978171  -4.651156  13.486179   0.066889  -0.074832 -12.563598  -1.111865  -0.359505  -0.404500  -0.002755   0.002339  -3.328913   1.670784   0.845797  14.378094  -0.019749  -0.044852  -4.679425   0.384985  -3.171015  -4.881134  -0.015551   0.020408
 -2.369145   0.923583   3.976142  -3.213671  -5.313770  -0.408011   2.332734   2.561766   2.061229   0.742495   0.052755   0.561641   0.441149  -1.626785   1.268752  -1.000128  -1.617001  -0.103542  -2.170849   2.198265   4.966200   0.128564  22.530974   0.077985   0.280054  -0.396929  -3.093339   0.330503   2.753884  -5.386181   2.516116   3.714405 -10.672667   0.165589 -13.209025   0.026690   0.247693  -1.105050   5.451841  -0.348362   1.107280  -5.918124  15.805791   0.074276  -0.089546 -14.593630  -1.295489  -0.442748  -0.473794  -0.003144   0.002590  -3.881975   1.989328   1.362801  17.000387  -0.027412  -0.050236  -5.397658   0.489977  -3.660333  -6.333116  -0.015212   0.022757
 -2.369158   0.921701   3.976636  -3.417706  -6.213490  -0.610958   2.157186   2.993189   2.177879   0.797031   0.133142   0.741825   0.605124  -1.665909   1.425252  -1.060440  -2.023895   0.027159  -2.192014   2.608731   5.955947   0.131505  26.364381   0.080968   0.297294   0.002144  -2.982970   0.471177   3.192525  -6.073547   2.566924   4.253855 -12.379117   0.175933 -15.401871   0.017283   0.233295  -1.326472   5.310403  -0.448626   1.004211  -7.321465  17.636604   0.076496  -0.096865 -15.493188  -1.448561  -0.260354  -0.593498  -0.004004   0.003322  -4.761015   2.180582   2.192539  19.249727  -0.037914  -0.048170  -7.119602   0.832254  -3.791118  -5.449226  -0.015695   0.016180
 -2.369595   0.918838   3.976981  -3.595218  -7.011041  -0.815437   2.003657   3.385811   2.210410   0.840216   0.182757   0.892446   0.759235  -1.691099   1.546068  -1.106157  -2.459574   0.132802  -2.208091   2.954800   6.872208   0.125547  30.187847   0.082819   0.314957   0.357333  -2.831216   0.603503   3.605748  -6.578388   2.620523   4.755123 -13.878062   0.176351 -17.462074   0.010335   0.221095  -1.660315   5.271089  -0.563604   0.911525  -8.828558  19.294603   0.077772  -0.099915 -16.323388  -1.595147  -0.093875  -0.631157  -0.003709   0.003019  -5.641294   2.321785   3.261656  21.276155  -0.048361  -0.042278  -8.739148   1.165564  -3.900741  -4.686054  -0.017326   0.011827
 -2.370304   0.915021   3.977213  -3.775266  -7.738056  -1.021243   1.881278   3.739421   2.198923   0.893457   0.211037   1.012684   0.904764  -1.712868   1.645010  -1.147181  -2.888830   0.201082  -2.226405   3.261308   7.704539   0.113222  34.005066   0.084177   0.330325   0.661705  -2.718417   0.729298   3.990599  -6.970563   2.677992   5.223894 -15.218767   0.170846 -19.385460   0.005635   0.212963  -2.001773   5.352460  -0.678200   0.840801 -10.419276  20.829924   0.078401  -0.100499 -17.098344  -1.735306   0.057366  -0.663022  -0.003420   0.002704  -6.494089   2.413196   4.502107  23.141801  -0.057514  -0.034745 -10.251215   1.484108  -3.993116  -3.989878  -0.019341   0.008847
 -2.371211   0.910273   3.977359  -3.961547  -8.407767  -1.227101   1.784568   4.058152   2.159726   0.956313   0.224039   1.106662   1.043397  -1.732641   1.730232  -1.187086  -3.300955   0.231562  -2.248594   3.539417   8.456427   0.096546  37.819137   0.085617   0.345262   0.931928  -2.660248   0.847989   4.346947  -7.287101   2.738026   5.660451 -16.433456   0.162037 -21.180889   0.002587   0.207349  -2.331960   5.516794  -0.789720   0.792004 -12.068796  22.256508   0.078278  -0.099376 -17.821660  -1.869026   0.194772  -0.691160  -0.003150   0.002405  -7.311730   2.457067   5.862090  24.868565  -0.064722  -0.026687 -11.662363   1.786598  -4.070587  -3.351638  -0.021229   0.006821
